# Blender 3.6.21
# www.blender.org
mtllib gamejamfountain.mtl
o Circle.001
v 0.000000 1.076166 -1.000000
v -0.500000 1.076166 -0.866025
v -0.866025 1.076166 -0.500000
v -1.000000 1.076166 0.000000
v -0.866025 1.076166 0.500000
v -0.500000 1.076166 0.866025
v 0.000000 1.076166 1.000000
v 0.500000 1.076166 0.866025
v 0.866025 1.076166 0.500000
v 1.000000 1.076166 0.000000
v 0.866025 1.076166 -0.500000
v 0.500000 1.076166 -0.866025
v -0.000000 1.502760 -0.612708
v -0.306354 1.502760 -0.530621
v -0.530621 1.502760 -0.306354
v -0.612708 1.502760 0.000000
v -0.530621 1.502760 0.306354
v -0.306354 1.502760 0.530621
v -0.000000 1.502760 0.612708
v 0.306354 1.502760 0.530621
v 0.530621 1.502760 0.306354
v 0.612708 1.502760 0.000000
v 0.530621 1.502760 -0.306354
v 0.306354 1.502760 -0.530621
v 0.005469 1.737934 -0.594285
v -0.291673 1.737934 -0.514665
v -0.509196 1.737934 -0.297142
v -0.588815 1.737934 0.000000
v -0.509196 1.737934 0.297142
v -0.291673 1.737934 0.514666
v 0.005469 1.737934 0.594285
v 0.302611 1.737934 0.514666
v 0.520135 1.737934 0.297142
v 0.599754 1.737934 0.000000
v 0.520135 1.737934 -0.297142
v 0.302611 1.737934 -0.514665
v 0.010938 2.033267 -0.719436
v -0.348780 2.033267 -0.623050
v -0.612112 2.033267 -0.359718
v -0.708498 2.033267 0.000000
v -0.612112 2.033267 0.359718
v -0.348780 2.033267 0.623050
v 0.010938 2.033267 0.719436
v 0.370656 2.033267 0.623050
v 0.633988 2.033267 0.359718
v 0.730374 2.033267 0.000000
v 0.633988 2.033267 -0.359718
v 0.370656 2.033267 -0.623050
v 0.000000 2.525491 -1.500257
v -0.750129 2.525491 -1.299261
v -1.299261 2.525491 -0.750129
v -1.500258 2.525491 0.000000
v -1.299261 2.525491 0.750129
v -0.750129 2.525491 1.299261
v 0.000000 2.525491 1.500258
v 0.750129 2.525491 1.299261
v 1.299261 2.525491 0.750129
v 1.500258 2.525491 0.000000
v 1.299261 2.525491 -0.750129
v 0.750129 2.525491 -1.299261
v 0.000000 2.530960 -1.302207
v -0.651103 2.530960 -1.127744
v -1.127744 2.530960 -0.651103
v -1.302207 2.530960 0.000000
v -1.127744 2.530960 0.651104
v -0.651103 2.530960 1.127744
v 0.000000 2.530960 1.302207
v 0.651103 2.530960 1.127744
v 1.127744 2.530960 0.651104
v 1.302207 2.530960 0.000000
v 1.127744 2.530960 -0.651103
v 0.651103 2.530960 -1.127744
v 0.000000 2.077020 -0.693475
v -0.346738 2.077020 -0.600567
v -0.600567 2.077020 -0.346737
v -0.693475 2.077020 0.000000
v -0.600567 2.077020 0.346738
v -0.346738 2.077020 0.600567
v 0.000000 2.077020 0.693475
v 0.346738 2.077020 0.600567
v 0.600567 2.077020 0.346738
v 0.693475 2.077020 0.000000
v 0.600567 2.077020 -0.346737
v 0.346738 2.077020 -0.600567
v 0.006693 1.972737 -0.478053
v -0.232334 1.972737 -0.414006
v -0.407314 1.972737 -0.239027
v -0.471361 1.972737 -0.000000
v -0.407314 1.972737 0.239027
v -0.232334 1.972737 0.414006
v 0.006693 1.972737 0.478053
v 0.245719 1.972737 0.414006
v 0.420699 1.972737 0.239027
v 0.484746 1.972737 -0.000000
v 0.420699 1.972737 -0.239027
v 0.245719 1.972737 -0.414006
v 0.006693 2.415985 -0.292907
v -0.139761 2.415985 -0.253665
v -0.246973 2.415985 -0.146454
v -0.286215 2.415985 -0.000000
v -0.246973 2.415985 0.146454
v -0.139761 2.415985 0.253665
v 0.006693 2.415985 0.292907
v 0.153146 2.415985 0.253665
v 0.260358 2.415985 0.146454
v 0.299600 2.415985 -0.000000
v 0.260358 2.415985 -0.146454
v 0.153146 2.415985 -0.253665
v 0.009307 2.660339 -0.284100
v -0.132743 2.660339 -0.246038
v -0.236730 2.660339 -0.142050
v -0.274793 2.660339 -0.000000
v -0.236730 2.660339 0.142050
v -0.132743 2.660339 0.246038
v 0.009307 2.660339 0.284100
v 0.151357 2.660339 0.246038
v 0.255345 2.660339 0.142050
v 0.293407 2.660339 -0.000000
v 0.255345 2.660339 -0.142050
v 0.151357 2.660339 -0.246038
v 0.011922 2.967204 -0.343929
v -0.160043 2.967204 -0.297851
v -0.285929 2.967204 -0.171964
v -0.332007 2.967204 -0.000000
v -0.285929 2.967204 0.171964
v -0.160043 2.967204 0.297851
v 0.011922 2.967204 0.343929
v 0.183886 2.967204 0.297851
v 0.309773 2.967204 0.171964
v 0.355850 2.967204 -0.000000
v 0.309773 2.967204 -0.171964
v 0.183886 2.967204 -0.297851
v 0.006693 3.478642 -0.717203
v -0.351909 3.478642 -0.621116
v -0.614424 3.478642 -0.358602
v -0.710511 3.478642 -0.000000
v -0.614424 3.478642 0.358602
v -0.351909 3.478642 0.621116
v 0.006693 3.478642 0.717203
v 0.365294 3.478642 0.621116
v 0.627809 3.478642 0.358602
v 0.723896 3.478642 -0.000000
v 0.627809 3.478642 -0.358602
v 0.365294 3.478642 -0.621116
v 0.006693 3.484326 -0.622524
v -0.304570 3.484326 -0.539122
v -0.532429 3.484326 -0.311262
v -0.615832 3.484326 -0.000000
v -0.532429 3.484326 0.311262
v -0.304570 3.484326 0.539122
v 0.006693 3.484326 0.622524
v 0.317955 3.484326 0.539122
v 0.545814 3.484326 0.311262
v 0.629217 3.484326 -0.000000
v 0.545814 3.484326 -0.311262
v 0.317955 3.484326 -0.539122
v 0.006693 3.012664 -0.331518
v -0.159066 3.012664 -0.287103
v -0.280411 3.012664 -0.165759
v -0.324826 3.012664 -0.000000
v -0.280411 3.012664 0.165759
v -0.159066 3.012664 0.287103
v 0.006693 3.012664 0.331518
v 0.172452 3.012664 0.287103
v 0.293796 3.012664 0.165759
v 0.338211 3.012664 -0.000000
v 0.293796 3.012664 -0.165759
v 0.172452 3.012664 -0.287103
v 0.000000 0.243992 -1.797200
v -0.898600 0.243992 -1.556421
v -1.556421 0.243992 -0.898600
v -1.797200 0.243992 0.000000
v -1.556421 0.243992 0.898600
v -0.898600 0.243992 1.556421
v 0.000000 0.243992 1.797200
v 0.898600 0.243992 1.556421
v 1.556421 0.243992 0.898600
v 1.797200 0.243992 0.000000
v 1.556421 0.243992 -0.898600
v 0.898600 0.243992 -1.556421
v 0.000000 1.135372 -1.797200
v -0.898600 1.135372 -1.556421
v -1.556421 1.135372 -0.898600
v -1.797200 1.135372 0.000000
v -1.556421 1.135372 0.898600
v -0.898600 1.135372 1.556421
v 0.000000 1.135372 1.797200
v 0.898600 1.135372 1.556421
v 1.556421 1.135372 0.898600
v 1.797200 1.135372 0.000000
v 1.556421 1.135372 -0.898600
v 0.898600 1.135372 -1.556421
v 0.000000 1.138933 -2.331954
v -1.165977 1.138933 -2.019532
v -2.019532 1.138933 -1.165977
v -2.331954 1.138933 0.000000
v -2.019532 1.138933 1.165977
v -1.165977 1.138933 2.019532
v 0.000000 1.138933 2.331954
v 1.165977 1.138933 2.019532
v 2.019532 1.138933 1.165977
v 2.331954 1.138933 0.000000
v 2.019532 1.138933 -1.165977
v 1.165977 1.138933 -2.019532
v -0.000000 1.696524 -2.864658
v -1.432329 1.696524 -2.480866
v -2.480866 1.696524 -1.432329
v -2.864658 1.696524 0.000000
v -2.480866 1.696524 1.432329
v -1.432329 1.696524 2.480866
v -0.000000 1.696524 2.864658
v 1.432329 1.696524 2.480866
v 2.480866 1.696524 1.432329
v 2.864658 1.696524 0.000000
v 2.480866 1.696524 -1.432329
v 1.432329 1.696524 -2.480866
v 0.016407 1.693680 -2.588381
v -1.277783 1.693680 -2.241603
v -2.225196 1.693680 -1.294190
v -2.571973 1.693680 -0.000000
v -2.225196 1.693680 1.294190
v -1.277783 1.693680 2.241603
v 0.016407 1.693680 2.588381
v 1.310598 1.693680 2.241603
v 2.258011 1.693680 1.294190
v 2.604788 1.693680 -0.000000
v 2.258011 1.693680 -1.294190
v 1.310598 1.693680 -2.241603
v 0.049222 1.141296 -2.017040
v -0.959298 1.141296 -1.746808
v -1.697586 1.141296 -1.008520
v -1.967818 1.141296 0.000000
v -1.697586 1.141296 1.008520
v -0.959298 1.141296 1.746808
v 0.049222 1.141296 2.017040
v 1.057742 1.141296 1.746808
v 1.796031 1.141296 1.008520
v 2.066263 1.141296 0.000000
v 1.796031 1.141296 -1.008520
v 1.057742 1.141296 -1.746808
vn 0.5316 0.6593 -0.5316
vn -0.1946 0.6593 -0.7262
vn 0.5316 0.6593 0.5316
vn -0.5316 0.6593 0.5316
vn 0.1946 0.6593 -0.7262
vn -0.5316 0.6593 -0.5316
vn 0.7262 0.6593 0.1946
vn -0.1946 0.6593 0.7262
vn -0.7262 0.6593 -0.1946
vn 0.7262 0.6593 -0.1946
vn 0.1946 0.6593 0.7262
vn -0.7262 0.6593 0.1946
vn -0.2580 0.0814 0.9627
vn -0.9613 0.0977 -0.2576
vn 0.9646 0.0531 -0.2585
vn 0.2582 0.0695 0.9636
vn -0.9613 0.0977 0.2576
vn 0.7059 0.0591 -0.7059
vn -0.2580 0.0814 -0.9627
vn 0.7059 0.0591 0.7059
vn -0.7041 0.0917 0.7041
vn 0.2582 0.0695 -0.9636
vn -0.7041 0.0917 -0.7041
vn 0.9646 0.0531 0.2585
vn 0.8883 -0.3929 0.2380
vn -0.2399 -0.3750 0.8954
vn -0.8995 -0.3645 -0.2410
vn 0.8883 -0.3929 -0.2380
vn 0.2391 -0.3826 0.8924
vn -0.8995 -0.3645 0.2410
vn 0.6514 -0.3891 -0.6514
vn -0.2399 -0.3750 -0.8954
vn 0.6514 -0.3891 0.6514
vn -0.6574 -0.3684 0.6574
vn 0.2391 -0.3826 -0.8924
vn -0.6574 -0.3684 -0.6574
vn -0.3837 -0.8400 -0.3837
vn 0.5331 -0.8339 0.1429
vn -0.1411 -0.8384 0.5265
vn -0.5228 -0.8409 -0.1401
vn 0.5331 -0.8339 -0.1429
vn 0.1418 -0.8365 0.5293
vn -0.5228 -0.8409 0.1401
vn 0.3893 -0.8348 -0.3893
vn -0.1411 -0.8384 -0.5265
vn 0.3893 -0.8348 0.3893
vn -0.3837 -0.8400 0.3837
vn 0.1418 -0.8365 -0.5293
vn 0.0074 0.9996 -0.0276
vn -0.0202 0.9996 -0.0202
vn 0.0276 0.9996 0.0074
vn -0.0074 0.9996 0.0276
vn -0.0276 0.9996 -0.0074
vn 0.0276 0.9996 -0.0074
vn 0.0074 0.9996 0.0276
vn -0.0276 0.9996 0.0074
vn 0.0202 0.9996 -0.0202
vn -0.0074 0.9996 -0.0276
vn 0.0202 0.9996 0.0202
vn -0.0202 0.9996 0.0202
vn 0.4321 0.7916 -0.4321
vn -0.1582 0.7916 0.5903
vn 0.4321 0.7916 0.4321
vn -0.5903 0.7916 -0.1582
vn 0.1582 0.7916 -0.5903
vn 0.5903 0.7916 0.1582
vn -0.5903 0.7916 0.1582
vn -0.1582 0.7916 -0.5903
vn 0.5903 0.7916 -0.1582
vn -0.4321 0.7916 0.4321
vn 0.1582 0.7916 0.5903
vn -0.4321 0.7916 -0.4321
vn -0.0000 1.0000 -0.0000
vn 0.6557 0.3742 -0.6557
vn -0.2400 0.3742 -0.8958
vn 0.6557 0.3742 0.6557
vn -0.6557 0.3742 0.6557
vn 0.2400 0.3742 -0.8958
vn -0.6557 0.3742 -0.6557
vn 0.8958 0.3742 0.2400
vn -0.2400 0.3742 0.8958
vn -0.8958 0.3742 -0.2400
vn 0.8958 0.3742 -0.2400
vn 0.2400 0.3742 0.8958
vn -0.8958 0.3742 0.2400
vn -0.2586 0.0376 0.9652
vn -0.9649 0.0451 -0.2586
vn 0.9656 0.0245 -0.2587
vn 0.2587 0.0320 0.9654
vn -0.9649 0.0451 0.2586
vn 0.7068 0.0272 -0.7068
vn -0.2586 0.0376 -0.9652
vn 0.7068 0.0272 0.7068
vn -0.7065 0.0423 0.7065
vn 0.2587 0.0320 -0.9654
vn -0.7065 0.0423 -0.7065
vn 0.9656 0.0245 0.2587
vn 0.9478 -0.1929 0.2540
vn -0.2544 -0.1830 0.9496
vn -0.9506 -0.1772 -0.2547
vn 0.9478 -0.1929 -0.2540
vn 0.2542 -0.1872 0.9489
vn -0.9506 -0.1772 0.2547
vn 0.6941 -0.1908 -0.6941
vn -0.2544 -0.1830 -0.9496
vn 0.6941 -0.1908 0.6941
vn -0.6956 -0.1793 0.6956
vn 0.2542 -0.1872 -0.9489
vn -0.6956 -0.1793 -0.6956
vn -0.5760 -0.5801 -0.5760
vn 0.7931 -0.5708 0.2125
vn -0.2113 -0.5776 0.7885
vn -0.7858 -0.5815 -0.2106
vn 0.7931 -0.5708 -0.2125
vn 0.2118 -0.5747 0.7904
vn -0.7858 -0.5815 0.2106
vn 0.5799 -0.5722 -0.5799
vn -0.2113 -0.5776 -0.7885
vn 0.5799 -0.5722 0.5799
vn -0.5760 -0.5801 0.5760
vn 0.2118 -0.5747 -0.7904
vn 0.0161 0.9981 -0.0599
vn -0.0439 0.9981 -0.0439
vn 0.0599 0.9981 0.0161
vn -0.0161 0.9981 0.0599
vn -0.0599 0.9981 -0.0161
vn 0.0599 0.9981 -0.0161
vn 0.0161 0.9981 0.0599
vn -0.0599 0.9981 0.0161
vn 0.0439 0.9981 -0.0439
vn -0.0161 0.9981 -0.0599
vn 0.0439 0.9981 0.0439
vn -0.0439 0.9981 0.0439
vn 0.6074 0.5119 -0.6074
vn -0.2223 0.5119 0.8298
vn 0.6074 0.5119 0.6074
vn -0.8298 0.5119 -0.2223
vn 0.2223 0.5119 -0.8298
vn 0.8298 0.5119 0.2223
vn -0.8298 0.5119 0.2223
vn -0.2223 0.5119 -0.8298
vn 0.8298 0.5119 -0.2223
vn -0.6074 0.5119 0.6074
vn 0.2223 0.5119 0.8298
vn -0.6074 0.5119 -0.6074
vn -0.9659 -0.0000 -0.2588
vn 0.9659 -0.0000 -0.2588
vn 0.2588 -0.0000 0.9659
vn -0.9659 -0.0000 0.2588
vn 0.7071 -0.0000 -0.7071
vn -0.2588 -0.0000 -0.9659
vn 0.7071 -0.0000 0.7071
vn -0.7071 -0.0000 0.7071
vn 0.2588 -0.0000 -0.9659
vn -0.7071 -0.0000 -0.7071
vn 0.9659 -0.0000 0.2588
vn -0.2588 -0.0000 0.9659
vn 0.1902 -0.6782 0.7099
vn -0.7099 -0.6782 0.1902
vn 0.5197 -0.6782 -0.5197
vn -0.1902 -0.6782 -0.7099
vn 0.5197 -0.6782 0.5197
vn -0.5197 -0.6782 0.5197
vn 0.1902 -0.6782 -0.7099
vn -0.5197 -0.6782 -0.5197
vn 0.7099 -0.6782 0.1902
vn -0.1902 -0.6782 0.7099
vn -0.7099 -0.6782 -0.1902
vn 0.7099 -0.6782 -0.1902
vn -0.0000 -1.0000 -0.0000
vn 0.0072 0.9999 -0.0072
vn -0.0028 0.9999 0.0105
vn 0.0072 0.9999 0.0072
vn -0.0109 0.9999 -0.0029
vn 0.0027 0.9999 -0.0101
vn 0.0097 0.9999 0.0026
vn -0.0109 0.9999 0.0029
vn -0.0028 0.9999 -0.0105
vn 0.0097 0.9999 -0.0026
vn -0.0079 0.9999 0.0079
vn 0.0027 0.9999 0.0101
vn -0.0079 0.9999 -0.0079
vn 0.4898 0.7212 -0.4898
vn -0.1845 0.7013 0.6886
vn 0.4898 0.7212 0.4898
vn -0.7032 0.6856 -0.1884
vn 0.1817 0.7122 -0.6781
vn 0.6640 0.7262 0.1779
vn -0.7032 0.6856 0.1884
vn -0.1845 0.7013 -0.6886
vn 0.6640 0.7262 -0.1779
vn -0.5108 0.6914 0.5108
vn 0.1817 0.7122 0.6781
vn -0.5108 0.6914 -0.5108
vt 0.000000 0.000000
s 0
f 12/1/1 24/1/1 23/1/1 11/1/1
f 2/1/2 14/1/2 13/1/2 1/1/2
f 9/1/3 21/1/3 20/1/3 8/1/3
f 6/1/4 18/1/4 17/1/4 5/1/4
f 1/1/5 13/1/5 24/1/5 12/1/5
f 3/1/6 15/1/6 14/1/6 2/1/6
f 10/1/7 22/1/7 21/1/7 9/1/7
f 7/1/8 19/1/8 18/1/8 6/1/8
f 4/1/9 16/1/9 15/1/9 3/1/9
f 11/1/10 23/1/10 22/1/10 10/1/10
f 8/1/11 20/1/11 19/1/11 7/1/11
f 5/1/12 17/1/12 16/1/12 4/1/12
f 19/1/13 31/1/13 30/1/13 18/1/13
f 16/1/14 28/1/14 27/1/14 15/1/14
f 23/1/15 35/1/15 34/1/15 22/1/15
f 20/1/16 32/1/16 31/1/16 19/1/16
f 17/1/17 29/1/17 28/1/17 16/1/17
f 24/1/18 36/1/18 35/1/18 23/1/18
f 14/1/19 26/1/19 25/1/19 13/1/19
f 21/1/20 33/1/20 32/1/20 20/1/20
f 18/1/21 30/1/21 29/1/21 17/1/21
f 13/1/22 25/1/22 36/1/22 24/1/22
f 15/1/23 27/1/23 26/1/23 14/1/23
f 22/1/24 34/1/24 33/1/24 21/1/24
f 34/1/25 46/1/25 45/1/25 33/1/25
f 31/1/26 43/1/26 42/1/26 30/1/26
f 28/1/27 40/1/27 39/1/27 27/1/27
f 35/1/28 47/1/28 46/1/28 34/1/28
f 32/1/29 44/1/29 43/1/29 31/1/29
f 29/1/30 41/1/30 40/1/30 28/1/30
f 36/1/31 48/1/31 47/1/31 35/1/31
f 26/1/32 38/1/32 37/1/32 25/1/32
f 33/1/33 45/1/33 44/1/33 32/1/33
f 30/1/34 42/1/34 41/1/34 29/1/34
f 25/1/35 37/1/35 48/1/35 36/1/35
f 27/1/36 39/1/36 38/1/36 26/1/36
f 39/1/37 51/1/37 50/1/37 38/1/37
f 46/1/38 58/1/38 57/1/38 45/1/38
f 43/1/39 55/1/39 54/1/39 42/1/39
f 40/1/40 52/1/40 51/1/40 39/1/40
f 47/1/41 59/1/41 58/1/41 46/1/41
f 44/1/42 56/1/42 55/1/42 43/1/42
f 41/1/43 53/1/43 52/1/43 40/1/43
f 48/1/44 60/1/44 59/1/44 47/1/44
f 38/1/45 50/1/45 49/1/45 37/1/45
f 45/1/46 57/1/46 56/1/46 44/1/46
f 42/1/47 54/1/47 53/1/47 41/1/47
f 37/1/48 49/1/48 60/1/48 48/1/48
f 49/1/49 61/1/49 72/1/49 60/1/49
f 51/1/50 63/1/50 62/1/50 50/1/50
f 58/1/51 70/1/51 69/1/51 57/1/51
f 55/1/52 67/1/52 66/1/52 54/1/52
f 52/1/53 64/1/53 63/1/53 51/1/53
f 59/1/54 71/1/54 70/1/54 58/1/54
f 56/1/55 68/1/55 67/1/55 55/1/55
f 53/1/56 65/1/56 64/1/56 52/1/56
f 60/1/57 72/1/57 71/1/57 59/1/57
f 50/1/58 62/1/58 61/1/58 49/1/58
f 57/1/59 69/1/59 68/1/59 56/1/59
f 54/1/60 66/1/60 65/1/60 53/1/60
f 66/1/61 78/1/61 77/1/61 65/1/61
f 61/1/62 73/1/62 84/1/62 72/1/62
f 63/1/63 75/1/63 74/1/63 62/1/63
f 70/1/64 82/1/64 81/1/64 69/1/64
f 67/1/65 79/1/65 78/1/65 66/1/65
f 64/1/66 76/1/66 75/1/66 63/1/66
f 71/1/67 83/1/67 82/1/67 70/1/67
f 68/1/68 80/1/68 79/1/68 67/1/68
f 65/1/69 77/1/69 76/1/69 64/1/69
f 72/1/70 84/1/70 83/1/70 71/1/70
f 62/1/71 74/1/71 73/1/71 61/1/71
f 69/1/72 81/1/72 80/1/72 68/1/72
f 74/1/73 75/1/73 76/1/73 77/1/73 78/1/73 79/1/73 80/1/73 81/1/73 82/1/73 83/1/73 84/1/73 73/1/73
f 96/1/74 108/1/74 107/1/74 95/1/74
f 86/1/75 98/1/75 97/1/75 85/1/75
f 93/1/76 105/1/76 104/1/76 92/1/76
f 90/1/77 102/1/77 101/1/77 89/1/77
f 85/1/78 97/1/78 108/1/78 96/1/78
f 87/1/79 99/1/79 98/1/79 86/1/79
f 94/1/80 106/1/80 105/1/80 93/1/80
f 91/1/81 103/1/81 102/1/81 90/1/81
f 88/1/82 100/1/82 99/1/82 87/1/82
f 95/1/83 107/1/83 106/1/83 94/1/83
f 92/1/84 104/1/84 103/1/84 91/1/84
f 89/1/85 101/1/85 100/1/85 88/1/85
f 103/1/86 115/1/86 114/1/86 102/1/86
f 100/1/87 112/1/87 111/1/87 99/1/87
f 107/1/88 119/1/88 118/1/88 106/1/88
f 104/1/89 116/1/89 115/1/89 103/1/89
f 101/1/90 113/1/90 112/1/90 100/1/90
f 108/1/91 120/1/91 119/1/91 107/1/91
f 98/1/92 110/1/92 109/1/92 97/1/92
f 105/1/93 117/1/93 116/1/93 104/1/93
f 102/1/94 114/1/94 113/1/94 101/1/94
f 97/1/95 109/1/95 120/1/95 108/1/95
f 99/1/96 111/1/96 110/1/96 98/1/96
f 106/1/97 118/1/97 117/1/97 105/1/97
f 118/1/98 130/1/98 129/1/98 117/1/98
f 115/1/99 127/1/99 126/1/99 114/1/99
f 112/1/100 124/1/100 123/1/100 111/1/100
f 119/1/101 131/1/101 130/1/101 118/1/101
f 116/1/102 128/1/102 127/1/102 115/1/102
f 113/1/103 125/1/103 124/1/103 112/1/103
f 120/1/104 132/1/104 131/1/104 119/1/104
f 110/1/105 122/1/105 121/1/105 109/1/105
f 117/1/106 129/1/106 128/1/106 116/1/106
f 114/1/107 126/1/107 125/1/107 113/1/107
f 109/1/108 121/1/108 132/1/108 120/1/108
f 111/1/109 123/1/109 122/1/109 110/1/109
f 123/1/110 135/1/110 134/1/110 122/1/110
f 130/1/111 142/1/111 141/1/111 129/1/111
f 127/1/112 139/1/112 138/1/112 126/1/112
f 124/1/113 136/1/113 135/1/113 123/1/113
f 131/1/114 143/1/114 142/1/114 130/1/114
f 128/1/115 140/1/115 139/1/115 127/1/115
f 125/1/116 137/1/116 136/1/116 124/1/116
f 132/1/117 144/1/117 143/1/117 131/1/117
f 122/1/118 134/1/118 133/1/118 121/1/118
f 129/1/119 141/1/119 140/1/119 128/1/119
f 126/1/120 138/1/120 137/1/120 125/1/120
f 121/1/121 133/1/121 144/1/121 132/1/121
f 133/1/122 145/1/122 156/1/122 144/1/122
f 135/1/123 147/1/123 146/1/123 134/1/123
f 142/1/124 154/1/124 153/1/124 141/1/124
f 139/1/125 151/1/125 150/1/125 138/1/125
f 136/1/126 148/1/126 147/1/126 135/1/126
f 143/1/127 155/1/127 154/1/127 142/1/127
f 140/1/128 152/1/128 151/1/128 139/1/128
f 137/1/129 149/1/129 148/1/129 136/1/129
f 144/1/130 156/1/130 155/1/130 143/1/130
f 134/1/131 146/1/131 145/1/131 133/1/131
f 141/1/132 153/1/132 152/1/132 140/1/132
f 138/1/133 150/1/133 149/1/133 137/1/133
f 150/1/134 162/1/134 161/1/134 149/1/134
f 145/1/135 157/1/135 168/1/135 156/1/135
f 147/1/136 159/1/136 158/1/136 146/1/136
f 154/1/137 166/1/137 165/1/137 153/1/137
f 151/1/138 163/1/138 162/1/138 150/1/138
f 148/1/139 160/1/139 159/1/139 147/1/139
f 155/1/140 167/1/140 166/1/140 154/1/140
f 152/1/141 164/1/141 163/1/141 151/1/141
f 149/1/142 161/1/142 160/1/142 148/1/142
f 156/1/143 168/1/143 167/1/143 155/1/143
f 146/1/144 158/1/144 157/1/144 145/1/144
f 153/1/145 165/1/145 164/1/145 152/1/145
f 158/1/73 159/1/73 160/1/73 161/1/73 162/1/73 163/1/73 164/1/73 165/1/73 166/1/73 167/1/73 168/1/73 157/1/73
f 172/1/146 184/1/146 183/1/146 171/1/146
f 179/1/147 191/1/147 190/1/147 178/1/147
f 176/1/148 188/1/148 187/1/148 175/1/148
f 173/1/149 185/1/149 184/1/149 172/1/149
f 180/1/150 192/1/150 191/1/150 179/1/150
f 170/1/151 182/1/151 181/1/151 169/1/151
f 177/1/152 189/1/152 188/1/152 176/1/152
f 174/1/153 186/1/153 185/1/153 173/1/153
f 169/1/154 181/1/154 192/1/154 180/1/154
f 171/1/155 183/1/155 182/1/155 170/1/155
f 178/1/156 190/1/156 189/1/156 177/1/156
f 175/1/157 187/1/157 186/1/157 174/1/157
f 200/1/158 212/1/158 211/1/158 199/1/158
f 197/1/159 209/1/159 208/1/159 196/1/159
f 204/1/160 216/1/160 215/1/160 203/1/160
f 194/1/161 206/1/161 205/1/161 193/1/161
f 201/1/162 213/1/162 212/1/162 200/1/162
f 198/1/163 210/1/163 209/1/163 197/1/163
f 193/1/164 205/1/164 216/1/164 204/1/164
f 195/1/165 207/1/165 206/1/165 194/1/165
f 202/1/166 214/1/166 213/1/166 201/1/166
f 199/1/167 211/1/167 210/1/167 198/1/167
f 196/1/168 208/1/168 207/1/168 195/1/168
f 203/1/169 215/1/169 214/1/169 202/1/169
f 194/1/170 193/1/170 204/1/170 203/1/170 202/1/170 201/1/170 200/1/170 199/1/170 198/1/170 197/1/170 196/1/170 195/1/170
f 210/1/171 222/1/171 221/1/171 209/1/171
f 205/1/172 217/1/172 228/1/172 216/1/172
f 207/1/173 219/1/173 218/1/173 206/1/173
f 214/1/174 226/1/174 225/1/174 213/1/174
f 211/1/175 223/1/175 222/1/175 210/1/175
f 208/1/176 220/1/176 219/1/176 207/1/176
f 215/1/177 227/1/177 226/1/177 214/1/177
f 212/1/178 224/1/178 223/1/178 211/1/178
f 209/1/179 221/1/179 220/1/179 208/1/179
f 216/1/180 228/1/180 227/1/180 215/1/180
f 206/1/181 218/1/181 217/1/181 205/1/181
f 213/1/182 225/1/182 224/1/182 212/1/182
f 222/1/183 234/1/183 233/1/183 221/1/183
f 217/1/184 229/1/184 240/1/184 228/1/184
f 219/1/185 231/1/185 230/1/185 218/1/185
f 226/1/186 238/1/186 237/1/186 225/1/186
f 223/1/187 235/1/187 234/1/187 222/1/187
f 220/1/188 232/1/188 231/1/188 219/1/188
f 227/1/189 239/1/189 238/1/189 226/1/189
f 224/1/190 236/1/190 235/1/190 223/1/190
f 221/1/191 233/1/191 232/1/191 220/1/191
f 228/1/192 240/1/192 239/1/192 227/1/192
f 218/1/193 230/1/193 229/1/193 217/1/193
f 225/1/194 237/1/194 236/1/194 224/1/194
f 230/1/73 231/1/73 232/1/73 233/1/73 234/1/73 235/1/73 236/1/73 237/1/73 238/1/73 239/1/73 240/1/73 229/1/73
