# Blender 3.6.21
# www.blender.org
mtllib tree.mtl
o trunk
v 0.000000 0.000000 -1.000000
v -0.500000 0.000000 -0.866025
v -0.866025 0.000000 -0.500000
v -1.000000 0.000000 0.000000
v -0.866025 0.000000 0.500000
v -0.500000 0.000000 0.866025
v 0.000000 0.000000 1.000000
v 0.500000 0.000000 0.866025
v 0.866025 0.000000 0.500000
v 1.000000 0.000000 0.000000
v 0.866025 0.000000 -0.500000
v 0.500000 0.000000 -0.866025
v -0.000000 13.203021 -0.405577
v -0.202788 13.203021 -0.351240
v -0.351240 13.203021 -0.202788
v -0.405577 13.203021 0.000000
v -0.351240 13.203021 0.202788
v -0.202788 13.203021 0.351240
v -0.000000 13.203021 0.405577
v 0.202788 13.203021 0.351240
v 0.351240 13.203021 0.202788
v 0.405577 13.203021 0.000000
v 0.351240 13.203021 -0.202788
v 0.202788 13.203021 -0.351240
v 0.047033 4.040503 -4.481911
v -2.193922 4.040503 -3.881449
v -3.834414 4.040503 -2.240956
v -4.434876 4.040503 -0.000001
v -3.834414 4.040503 2.240953
v -2.193922 4.040503 3.881445
v 0.047033 4.040503 4.481908
v 2.287987 4.040503 3.881445
v 3.928480 4.040503 2.240953
v 4.528942 4.040503 -0.000001
v 3.928480 4.040503 -2.240956
v 2.287987 4.040503 -3.881449
v 0.047033 8.443867 -0.523086
v -0.214510 8.443867 -0.453006
v -0.405972 8.443867 -0.261544
v -0.476052 8.443867 -0.000001
v -0.405972 8.443867 0.261541
v -0.214510 8.443867 0.453004
v 0.047033 8.443867 0.523084
v 0.308575 8.443867 0.453004
v 0.500038 8.443867 0.261541
v 0.570118 8.443867 -0.000001
v 0.500038 8.443867 -0.261544
v 0.308575 8.443867 -0.453006
v 0.047033 7.894479 -3.194884
v -1.550409 7.894479 -2.766851
v -2.719817 7.894479 -1.597442
v -3.147851 7.894479 -0.000001
v -2.719817 7.894479 1.597440
v -1.550409 7.894479 2.766849
v 0.047033 7.894479 3.194882
v 1.644474 7.894479 2.766849
v 2.813882 7.894479 1.597440
v 3.241915 7.894479 -0.000001
v 2.813882 7.894479 -1.597442
v 1.644474 7.894479 -2.766851
v 0.047033 11.033372 -0.372877
v -0.139405 11.033372 -0.322921
v -0.275887 11.033372 -0.186439
v -0.325843 11.033372 -0.000001
v -0.275887 11.033372 0.186437
v -0.139405 11.033372 0.322919
v 0.047033 11.033372 0.372875
v 0.233471 11.033372 0.322919
v 0.369953 11.033372 0.186437
v 0.419909 11.033372 -0.000001
v 0.369953 11.033372 -0.186439
v 0.233471 11.033372 -0.322921
v 0.000000 10.560177 -2.268323
v -1.134161 10.560177 -1.964426
v -1.964425 10.560177 -1.134162
v -2.268323 10.560177 -0.000001
v -1.964425 10.560177 1.134161
v -1.134161 10.560177 1.964424
v 0.000000 10.560177 2.268322
v 1.134161 10.560177 1.964424
v 1.964425 10.560177 1.134161
v 2.268322 10.560177 -0.000001
v 1.964425 10.560177 -1.134162
v 1.134161 10.560177 -1.964426
v 0.000000 12.788748 -0.264737
v -0.132368 12.788748 -0.229269
v -0.229269 12.788748 -0.132369
v -0.264737 12.788748 -0.000001
v -0.229269 12.788748 0.132368
v -0.132368 12.788748 0.229268
v 0.000000 12.788748 0.264736
v 0.132369 12.788748 0.229268
v 0.229269 12.788748 0.132368
v 0.264737 12.788748 -0.000001
v 0.229269 12.788748 -0.132369
v 0.132369 12.788748 -0.229269
v 0.023516 12.638621 -1.292561
v -0.622764 12.638621 -1.119391
v -1.095874 12.638621 -0.646281
v -1.269044 12.638621 -0.000000
v -1.095874 12.638621 0.646280
v -0.622764 12.638621 1.119390
v 0.023516 12.638621 1.292560
v 0.669797 12.638621 1.119390
v 1.142907 12.638621 0.646280
v 1.316077 12.638621 -0.000000
v 1.142907 12.638621 -0.646281
v 0.669797 12.638621 -1.119391
v 0.023517 13.908530 -0.150856
v -0.051911 13.908530 -0.130645
v -0.107128 13.908530 -0.075428
v -0.127339 13.908530 -0.000000
v -0.107128 13.908530 0.075427
v -0.051911 13.908530 0.130644
v 0.023517 13.908530 0.150855
v 0.098944 13.908530 0.130644
v 0.154161 13.908530 0.075427
v 0.174372 13.908530 -0.000000
v 0.154161 13.908530 -0.075428
v 0.098944 13.908530 -0.130645
vn -0.2586 -0.0434 0.9650
vn 0.7064 -0.0434 0.7064
vn -0.9650 -0.0434 -0.2586
vn 0.2586 -0.0434 -0.9650
vn 0.9650 -0.0434 0.2586
vn -0.9650 -0.0434 0.2586
vn -0.2586 -0.0434 -0.9650
vn 0.9650 -0.0434 -0.2586
vn -0.7064 -0.0434 0.7064
vn 0.2586 -0.0434 0.9650
vn -0.7064 -0.0434 -0.7064
vn 0.7064 -0.0434 -0.7064
vn -0.0000 1.0000 -0.0000
vn -0.0000 -1.0000 -0.0000
vt 0.000000 0.000000
s 0
f 1/1/1 12/1/1 24/1/1 13/1/1
f 3/1/2 2/1/2 14/1/2 15/1/2
f 10/1/3 9/1/3 21/1/3 22/1/3
f 7/1/4 6/1/4 18/1/4 19/1/4
f 4/1/5 3/1/5 15/1/5 16/1/5
f 11/1/6 10/1/6 22/1/6 23/1/6
f 8/1/7 7/1/7 19/1/7 20/1/7
f 5/1/8 4/1/8 16/1/8 17/1/8
f 12/1/9 11/1/9 23/1/9 24/1/9
f 2/1/10 1/1/10 13/1/10 14/1/10
f 9/1/11 8/1/11 20/1/11 21/1/11
f 6/1/12 5/1/12 17/1/12 18/1/12
f 26/1/13 27/1/13 28/1/13 29/1/13 30/1/13 31/1/13 32/1/13 33/1/13 34/1/13 35/1/13 36/1/13 25/1/13
f 38/1/14 37/1/14 48/1/14 47/1/14 46/1/14 45/1/14 44/1/14 43/1/14 42/1/14 41/1/14 40/1/14 39/1/14
f 50/1/13 51/1/13 52/1/13 53/1/13 54/1/13 55/1/13 56/1/13 57/1/13 58/1/13 59/1/13 60/1/13 49/1/13
f 62/1/14 61/1/14 72/1/14 71/1/14 70/1/14 69/1/14 68/1/14 67/1/14 66/1/14 65/1/14 64/1/14 63/1/14
f 74/1/13 75/1/13 76/1/13 77/1/13 78/1/13 79/1/13 80/1/13 81/1/13 82/1/13 83/1/13 84/1/13 73/1/13
f 86/1/14 85/1/14 96/1/14 95/1/14 94/1/14 93/1/14 92/1/14 91/1/14 90/1/14 89/1/14 88/1/14 87/1/14
f 98/1/13 99/1/13 100/1/13 101/1/13 102/1/13 103/1/13 104/1/13 105/1/13 106/1/13 107/1/13 108/1/13 97/1/13
f 110/1/14 109/1/14 120/1/14 119/1/14 118/1/14 117/1/14 116/1/14 115/1/14 114/1/14 113/1/14 112/1/14 111/1/14
f 2/1/13 3/1/13 4/1/13 5/1/13 6/1/13 7/1/13 8/1/13 9/1/13 10/1/13 11/1/13 12/1/13 1/1/13
o leaves
v -0.000000 13.203021 -0.405577
v -0.202788 13.203021 -0.351240
v -0.351240 13.203021 -0.202788
v -0.405577 13.203021 0.000000
v -0.351240 13.203021 0.202788
v -0.202788 13.203021 0.351240
v -0.000000 13.203021 0.405577
v 0.202788 13.203021 0.351240
v 0.351240 13.203021 0.202788
v 0.405577 13.203021 0.000000
v 0.351240 13.203021 -0.202788
v 0.202788 13.203021 -0.351240
v 0.047033 4.040503 -4.481911
v -2.193922 4.040503 -3.881449
v -3.834414 4.040503 -2.240956
v -4.434876 4.040503 -0.000001
v -3.834414 4.040503 2.240953
v -2.193922 4.040503 3.881445
v 0.047033 4.040503 4.481908
v 2.287987 4.040503 3.881445
v 3.928480 4.040503 2.240953
v 4.528942 4.040503 -0.000001
v 3.928480 4.040503 -2.240956
v 2.287987 4.040503 -3.881449
v 0.047033 8.443867 -0.523086
v -0.214510 8.443867 -0.453006
v -0.405972 8.443867 -0.261544
v -0.476052 8.443867 -0.000001
v -0.405972 8.443867 0.261541
v -0.214510 8.443867 0.453004
v 0.047033 8.443867 0.523084
v 0.308575 8.443867 0.453004
v 0.500038 8.443867 0.261541
v 0.570118 8.443867 -0.000001
v 0.500038 8.443867 -0.261544
v 0.308575 8.443867 -0.453006
v 0.047033 7.894479 -3.194884
v -1.550409 7.894479 -2.766851
v -2.719817 7.894479 -1.597442
v -3.147851 7.894479 -0.000001
v -2.719817 7.894479 1.597440
v -1.550409 7.894479 2.766849
v 0.047033 7.894479 3.194882
v 1.644474 7.894479 2.766849
v 2.813882 7.894479 1.597440
v 3.241915 7.894479 -0.000001
v 2.813882 7.894479 -1.597442
v 1.644474 7.894479 -2.766851
v 0.047033 11.033372 -0.372877
v -0.139405 11.033372 -0.322921
v -0.275887 11.033372 -0.186439
v -0.325843 11.033372 -0.000001
v -0.275887 11.033372 0.186437
v -0.139405 11.033372 0.322919
v 0.047033 11.033372 0.372875
v 0.233471 11.033372 0.322919
v 0.369953 11.033372 0.186437
v 0.419909 11.033372 -0.000001
v 0.369953 11.033372 -0.186439
v 0.233471 11.033372 -0.322921
v 0.000000 10.560177 -2.268323
v -1.134161 10.560177 -1.964426
v -1.964425 10.560177 -1.134162
v -2.268323 10.560177 -0.000001
v -1.964425 10.560177 1.134161
v -1.134161 10.560177 1.964424
v 0.000000 10.560177 2.268322
v 1.134161 10.560177 1.964424
v 1.964425 10.560177 1.134161
v 2.268322 10.560177 -0.000001
v 1.964425 10.560177 -1.134162
v 1.134161 10.560177 -1.964426
v 0.000000 12.788748 -0.264737
v -0.132368 12.788748 -0.229269
v -0.229269 12.788748 -0.132369
v -0.264737 12.788748 -0.000001
v -0.229269 12.788748 0.132368
v -0.132368 12.788748 0.229268
v 0.000000 12.788748 0.264736
v 0.132369 12.788748 0.229268
v 0.229269 12.788748 0.132368
v 0.264737 12.788748 -0.000001
v 0.229269 12.788748 -0.132369
v 0.132369 12.788748 -0.229269
v 0.023516 12.638621 -1.292561
v -0.622764 12.638621 -1.119391
v -1.095874 12.638621 -0.646281
v -1.269044 12.638621 -0.000000
v -1.095874 12.638621 0.646280
v -0.622764 12.638621 1.119390
v 0.023516 12.638621 1.292560
v 0.669797 12.638621 1.119390
v 1.142907 12.638621 0.646280
v 1.316077 12.638621 -0.000000
v 1.142907 12.638621 -0.646281
v 0.669797 12.638621 -1.119391
v 0.023517 13.908530 -0.150856
v -0.051911 13.908530 -0.130645
v -0.107128 13.908530 -0.075428
v -0.127339 13.908530 -0.000000
v -0.107128 13.908530 0.075427
v -0.051911 13.908530 0.130644
v 0.023517 13.908530 0.150855
v 0.098944 13.908530 0.130644
v 0.154161 13.908530 0.075427
v 0.174372 13.908530 -0.000000
v 0.154161 13.908530 -0.075428
v 0.098944 13.908530 -0.130645
vn -0.0000 -1.0000 -0.0000
vn -0.7293 -0.6557 0.1954
vn -0.1954 -0.6557 -0.7293
vn 0.7293 -0.6557 -0.1954
vn -0.5339 -0.6557 0.5339
vn 0.1954 -0.6557 0.7293
vn -0.5339 -0.6557 -0.5339
vn 0.5339 -0.6557 -0.5339
vn -0.1954 -0.6557 0.7293
vn 0.5339 -0.6557 0.5339
vn -0.7293 -0.6557 -0.1954
vn 0.1954 -0.6557 -0.7293
vn 0.7293 -0.6557 0.1954
vt 0.000000 0.000000
s 0
f 122/2/15 121/2/15 132/2/15 131/2/15 130/2/15 129/2/15 128/2/15 127/2/15 126/2/15 125/2/15 124/2/15 123/2/15
f 143/2/16 142/2/16 154/2/16 155/2/16
f 140/2/17 139/2/17 151/2/17 152/2/17
f 137/2/18 136/2/18 148/2/18 149/2/18
f 144/2/19 143/2/19 155/2/19 156/2/19
f 134/2/20 133/2/20 145/2/20 146/2/20
f 141/2/21 140/2/21 152/2/21 153/2/21
f 138/2/22 137/2/22 149/2/22 150/2/22
f 133/2/23 144/2/23 156/2/23 145/2/23
f 135/2/24 134/2/24 146/2/24 147/2/24
f 142/2/25 141/2/25 153/2/25 154/2/25
f 139/2/26 138/2/26 150/2/26 151/2/26
f 136/2/27 135/2/27 147/2/27 148/2/27
f 167/2/16 166/2/16 178/2/16 179/2/16
f 164/2/17 163/2/17 175/2/17 176/2/17
f 161/2/18 160/2/18 172/2/18 173/2/18
f 168/2/19 167/2/19 179/2/19 180/2/19
f 158/2/20 157/2/20 169/2/20 170/2/20
f 165/2/21 164/2/21 176/2/21 177/2/21
f 162/2/22 161/2/22 173/2/22 174/2/22
f 157/2/23 168/2/23 180/2/23 169/2/23
f 159/2/24 158/2/24 170/2/24 171/2/24
f 166/2/25 165/2/25 177/2/25 178/2/25
f 163/2/26 162/2/26 174/2/26 175/2/26
f 160/2/27 159/2/27 171/2/27 172/2/27
f 191/2/16 190/2/16 202/2/16 203/2/16
f 188/2/17 187/2/17 199/2/17 200/2/17
f 185/2/18 184/2/18 196/2/18 197/2/18
f 192/2/19 191/2/19 203/2/19 204/2/19
f 182/2/20 181/2/20 193/2/20 194/2/20
f 189/2/21 188/2/21 200/2/21 201/2/21
f 186/2/22 185/2/22 197/2/22 198/2/22
f 181/2/23 192/2/23 204/2/23 193/2/23
f 183/2/24 182/2/24 194/2/24 195/2/24
f 190/2/25 189/2/25 201/2/25 202/2/25
f 187/2/26 186/2/26 198/2/26 199/2/26
f 184/2/27 183/2/27 195/2/27 196/2/27
f 215/2/16 214/2/16 226/2/16 227/2/16
f 212/2/17 211/2/17 223/2/17 224/2/17
f 209/2/18 208/2/18 220/2/18 221/2/18
f 216/2/19 215/2/19 227/2/19 228/2/19
f 206/2/20 205/2/20 217/2/20 218/2/20
f 213/2/21 212/2/21 224/2/21 225/2/21
f 210/2/22 209/2/22 221/2/22 222/2/22
f 205/2/23 216/2/23 228/2/23 217/2/23
f 207/2/24 206/2/24 218/2/24 219/2/24
f 214/2/25 213/2/25 225/2/25 226/2/25
f 211/2/26 210/2/26 222/2/26 223/2/26
f 208/2/27 207/2/27 219/2/27 220/2/27
