# Blender 3.6.21
# www.blender.org
mtllib tree.mtl
o trunk
v 0.000000 0.000000 -1.000000
v -0.500000 0.000000 -0.866025
v -0.866025 0.000000 -0.500000
v -1.000000 0.000000 0.000000
v -0.866025 0.000000 0.500000
v -0.500000 0.000000 0.866025
v 0.000000 0.000000 1.000000
v 0.500000 0.000000 0.866025
v 0.866025 0.000000 0.500000
v 1.000000 0.000000 0.000000
v 0.866025 0.000000 -0.500000
v 0.500000 0.000000 -0.866025
v -0.000000 13.203021 -0.405577
v -0.202788 13.203021 -0.351240
v -0.351240 13.203021 -0.202788
v -0.405577 13.203021 0.000000
v -0.351240 13.203021 0.202788
v -0.202788 13.203021 0.351240
v -0.000000 13.203021 0.405577
v 0.202788 13.203021 0.351240
v 0.351240 13.203021 0.202788
v 0.405577 13.203021 0.000000
v 0.351240 13.203021 -0.202788
v 0.202788 13.203021 -0.351240
v 0.047033 8.443867 -0.523086
v -0.214510 8.443867 -0.453006
v -0.405972 8.443867 -0.261544
v -0.476052 8.443867 -0.000001
v -0.405972 8.443867 0.261541
v -0.214510 8.443867 0.453004
v 0.047033 8.443867 0.523084
v 0.308575 8.443867 0.453004
v 0.500038 8.443867 0.261541
v 0.570118 8.443867 -0.000001
v 0.500038 8.443867 -0.261544
v 0.308575 8.443867 -0.453006
v 0.047033 11.033372 -0.372877
v -0.139405 11.033372 -0.322921
v -0.275887 11.033372 -0.186439
v -0.325843 11.033372 -0.000001
v -0.275887 11.033372 0.186437
v -0.139405 11.033372 0.322919
v 0.047033 11.033372 0.372875
v 0.233471 11.033372 0.322919
v 0.369953 11.033372 0.186437
v 0.419909 11.033372 -0.000001
v 0.369953 11.033372 -0.186439
v 0.233471 11.033372 -0.322921
v 0.000000 12.788748 -0.264737
v -0.132368 12.788748 -0.229269
v -0.229269 12.788748 -0.132369
v -0.264737 12.788748 -0.000001
v -0.229269 12.788748 0.132368
v -0.132368 12.788748 0.229268
v 0.000000 12.788748 0.264736
v 0.132369 12.788748 0.229268
v 0.229269 12.788748 0.132368
v 0.264737 12.788748 -0.000001
v 0.229269 12.788748 -0.132369
v 0.132369 12.788748 -0.229269
v 0.023517 13.908530 -0.150856
v -0.051911 13.908530 -0.130645
v -0.107128 13.908530 -0.075428
v -0.127339 13.908530 -0.000000
v -0.107128 13.908530 0.075427
v -0.051911 13.908530 0.130644
v 0.023517 13.908530 0.150855
v 0.098944 13.908530 0.130644
v 0.154161 13.908530 0.075427
v 0.174372 13.908530 -0.000000
v 0.154161 13.908530 -0.075428
v 0.098944 13.908530 -0.130645
vn 0.2586 0.0434 -0.9650
vn -0.7064 0.0434 -0.7064
vn 0.9650 0.0434 0.2586
vn -0.2586 0.0434 0.9650
vn -0.9650 0.0434 -0.2586
vn 0.9650 0.0434 -0.2586
vn 0.2586 0.0434 0.9650
vn -0.9650 0.0434 0.2586
vn 0.7064 0.0434 -0.7064
vn -0.2586 0.0434 -0.9650
vn 0.7064 0.0434 0.7064
vn -0.7064 0.0434 0.7064
vn -0.0000 1.0000 -0.0000
vn -0.0000 -1.0000 -0.0000
vt 0.000000 0.000000
s 0
f 1/1/1 13/1/1 24/1/1 12/1/1
f 3/1/2 15/1/2 14/1/2 2/1/2
f 10/1/3 22/1/3 21/1/3 9/1/3
f 7/1/4 19/1/4 18/1/4 6/1/4
f 4/1/5 16/1/5 15/1/5 3/1/5
f 11/1/6 23/1/6 22/1/6 10/1/6
f 8/1/7 20/1/7 19/1/7 7/1/7
f 5/1/8 17/1/8 16/1/8 4/1/8
f 12/1/9 24/1/9 23/1/9 11/1/9
f 2/1/10 14/1/10 13/1/10 1/1/10
f 9/1/11 21/1/11 20/1/11 8/1/11
f 6/1/12 18/1/12 17/1/12 5/1/12
f 26/1/13 27/1/13 28/1/13 29/1/13 30/1/13 31/1/13 32/1/13 33/1/13 34/1/13 35/1/13 36/1/13 25/1/13
f 38/1/13 39/1/13 40/1/13 41/1/13 42/1/13 43/1/13 44/1/13 45/1/13 46/1/13 47/1/13 48/1/13 37/1/13
f 50/1/14 49/1/14 60/1/14 59/1/14 58/1/14 57/1/14 56/1/14 55/1/14 54/1/14 53/1/14 52/1/14 51/1/14
f 62/1/13 63/1/13 64/1/13 65/1/13 66/1/13 67/1/13 68/1/13 69/1/13 70/1/13 71/1/13 72/1/13 61/1/13
f 2/1/14 1/1/14 12/1/14 11/1/14 10/1/14 9/1/14 8/1/14 7/1/14 6/1/14 5/1/14 4/1/14 3/1/14
o leaves
v -0.000000 13.203021 -0.405577
v -0.202788 13.203021 -0.351240
v -0.351240 13.203021 -0.202788
v -0.405577 13.203021 0.000000
v -0.351240 13.203021 0.202788
v -0.202788 13.203021 0.351240
v -0.000000 13.203021 0.405577
v 0.202788 13.203021 0.351240
v 0.351240 13.203021 0.202788
v 0.405577 13.203021 0.000000
v 0.351240 13.203021 -0.202788
v 0.202788 13.203021 -0.351240
v 0.047033 4.040503 -4.481911
v -2.193922 4.040503 -3.881449
v -3.834414 4.040503 -2.240956
v -4.434876 4.040503 -0.000001
v -3.834414 4.040503 2.240953
v -2.193922 4.040503 3.881445
v 0.047033 4.040503 4.481908
v 2.287987 4.040503 3.881445
v 3.928480 4.040503 2.240953
v 4.528942 4.040503 -0.000001
v 3.928480 4.040503 -2.240956
v 2.287987 4.040503 -3.881449
v 0.047033 8.443867 -0.523086
v -0.214510 8.443867 -0.453006
v -0.405972 8.443867 -0.261544
v -0.476052 8.443867 -0.000001
v -0.405972 8.443867 0.261541
v -0.214510 8.443867 0.453004
v 0.047033 8.443867 0.523084
v 0.308575 8.443867 0.453004
v 0.500038 8.443867 0.261541
v 0.570118 8.443867 -0.000001
v 0.500038 8.443867 -0.261544
v 0.308575 8.443867 -0.453006
v 0.047033 7.894479 -3.194884
v -1.550409 7.894479 -2.766851
v -2.719817 7.894479 -1.597442
v -3.147851 7.894479 -0.000001
v -2.719817 7.894479 1.597440
v -1.550409 7.894479 2.766849
v 0.047033 7.894479 3.194882
v 1.644474 7.894479 2.766849
v 2.813882 7.894479 1.597440
v 3.241915 7.894479 -0.000001
v 2.813882 7.894479 -1.597442
v 1.644474 7.894479 -2.766851
v 0.047033 11.033372 -0.372877
v -0.139405 11.033372 -0.322921
v -0.275887 11.033372 -0.186439
v -0.325843 11.033372 -0.000001
v -0.275887 11.033372 0.186437
v -0.139405 11.033372 0.322919
v 0.047033 11.033372 0.372875
v 0.233471 11.033372 0.322919
v 0.369953 11.033372 0.186437
v 0.419909 11.033372 -0.000001
v 0.369953 11.033372 -0.186439
v 0.233471 11.033372 -0.322921
v 0.000000 10.560177 -2.268323
v -1.134161 10.560177 -1.964426
v -1.964425 10.560177 -1.134162
v -2.268323 10.560177 -0.000001
v -1.964425 10.560177 1.134161
v -1.134161 10.560177 1.964424
v 0.000000 10.560177 2.268322
v 1.134161 10.560177 1.964424
v 1.964425 10.560177 1.134161
v 2.268322 10.560177 -0.000001
v 1.964425 10.560177 -1.134162
v 1.134161 10.560177 -1.964426
v 0.000000 12.788748 -0.264737
v -0.132368 12.788748 -0.229269
v -0.229269 12.788748 -0.132369
v -0.264737 12.788748 -0.000001
v -0.229269 12.788748 0.132368
v -0.132368 12.788748 0.229268
v 0.000000 12.788748 0.264736
v 0.132369 12.788748 0.229268
v 0.229269 12.788748 0.132368
v 0.264737 12.788748 -0.000001
v 0.229269 12.788748 -0.132369
v 0.132369 12.788748 -0.229269
v 0.023516 12.638621 -1.292561
v -0.622764 12.638621 -1.119391
v -1.095874 12.638621 -0.646281
v -1.269044 12.638621 -0.000000
v -1.095874 12.638621 0.646280
v -0.622764 12.638621 1.119390
v 0.023516 12.638621 1.292560
v 0.669797 12.638621 1.119390
v 1.142907 12.638621 0.646280
v 1.316077 12.638621 -0.000000
v 1.142907 12.638621 -0.646281
v 0.669797 12.638621 -1.119391
v 0.023517 13.908530 -0.150856
v -0.051911 13.908530 -0.130645
v -0.107128 13.908530 -0.075428
v -0.127339 13.908530 -0.000000
v -0.107128 13.908530 0.075427
v -0.051911 13.908530 0.130644
v 0.023517 13.908530 0.150855
v 0.098944 13.908530 0.130644
v 0.154161 13.908530 0.075427
v 0.174372 13.908530 -0.000000
v 0.154161 13.908530 -0.075428
v 0.098944 13.908530 -0.130645
vn -0.0000 -1.0000 -0.0000
vn 0.7293 0.6557 -0.1954
vn 0.1954 0.6557 0.7293
vn -0.7293 0.6557 0.1954
vn 0.5339 0.6557 -0.5339
vn -0.1954 0.6557 -0.7293
vn 0.5339 0.6557 0.5339
vn -0.5339 0.6557 0.5339
vn 0.1954 0.6557 -0.7293
vn -0.5339 0.6557 -0.5339
vn 0.7293 0.6557 0.1954
vn -0.1954 0.6557 0.7293
vn -0.7293 0.6557 -0.1954
vn -0.0000 1.0000 -0.0000
vt 0.000000 0.000000
s 0
f 74/2/15 73/2/15 84/2/15 83/2/15 82/2/15 81/2/15 80/2/15 79/2/15 78/2/15 77/2/15 76/2/15 75/2/15
f 95/2/16 107/2/16 106/2/16 94/2/16
f 92/2/17 104/2/17 103/2/17 91/2/17
f 89/2/18 101/2/18 100/2/18 88/2/18
f 96/2/19 108/2/19 107/2/19 95/2/19
f 86/2/20 98/2/20 97/2/20 85/2/20
f 93/2/21 105/2/21 104/2/21 92/2/21
f 90/2/22 102/2/22 101/2/22 89/2/22
f 85/2/23 97/2/23 108/2/23 96/2/23
f 87/2/24 99/2/24 98/2/24 86/2/24
f 94/2/25 106/2/25 105/2/25 93/2/25
f 91/2/26 103/2/26 102/2/26 90/2/26
f 88/2/27 100/2/27 99/2/27 87/2/27
f 119/2/16 131/2/16 130/2/16 118/2/16
f 116/2/17 128/2/17 127/2/17 115/2/17
f 113/2/18 125/2/18 124/2/18 112/2/18
f 120/2/19 132/2/19 131/2/19 119/2/19
f 110/2/20 122/2/20 121/2/20 109/2/20
f 117/2/21 129/2/21 128/2/21 116/2/21
f 114/2/22 126/2/22 125/2/22 113/2/22
f 109/2/23 121/2/23 132/2/23 120/2/23
f 111/2/24 123/2/24 122/2/24 110/2/24
f 118/2/25 130/2/25 129/2/25 117/2/25
f 115/2/26 127/2/26 126/2/26 114/2/26
f 112/2/27 124/2/27 123/2/27 111/2/27
f 143/2/16 155/2/16 154/2/16 142/2/16
f 140/2/17 152/2/17 151/2/17 139/2/17
f 137/2/18 149/2/18 148/2/18 136/2/18
f 144/2/19 156/2/19 155/2/19 143/2/19
f 134/2/20 146/2/20 145/2/20 133/2/20
f 141/2/21 153/2/21 152/2/21 140/2/21
f 138/2/22 150/2/22 149/2/22 137/2/22
f 133/2/23 145/2/23 156/2/23 144/2/23
f 135/2/24 147/2/24 146/2/24 134/2/24
f 142/2/25 154/2/25 153/2/25 141/2/25
f 139/2/26 151/2/26 150/2/26 138/2/26
f 136/2/27 148/2/27 147/2/27 135/2/27
f 167/2/16 179/2/16 178/2/16 166/2/16
f 164/2/17 176/2/17 175/2/17 163/2/17
f 161/2/18 173/2/18 172/2/18 160/2/18
f 168/2/19 180/2/19 179/2/19 167/2/19
f 158/2/20 170/2/20 169/2/20 157/2/20
f 165/2/21 177/2/21 176/2/21 164/2/21
f 162/2/22 174/2/22 173/2/22 161/2/22
f 157/2/23 169/2/23 180/2/23 168/2/23
f 159/2/24 171/2/24 170/2/24 158/2/24
f 166/2/25 178/2/25 177/2/25 165/2/25
f 163/2/26 175/2/26 174/2/26 162/2/26
f 160/2/27 172/2/27 171/2/27 159/2/27
f 86/2/15 85/2/15 96/2/15 95/2/15 94/2/15 93/2/15 92/2/15 91/2/15 90/2/15 89/2/15 88/2/15 87/2/15
f 110/2/15 109/2/15 120/2/15 119/2/15 118/2/15 117/2/15 116/2/15 115/2/15 114/2/15 113/2/15 112/2/15 111/2/15
f 134/2/15 133/2/15 144/2/15 143/2/15 142/2/15 141/2/15 140/2/15 139/2/15 138/2/15 137/2/15 136/2/15 135/2/15
f 158/2/15 157/2/15 168/2/15 167/2/15 166/2/15 165/2/15 164/2/15 163/2/15 162/2/15 161/2/15 160/2/15 159/2/15
f 170/2/28 171/2/28 172/2/28 173/2/28 174/2/28 175/2/28 176/2/28 177/2/28 178/2/28 179/2/28 180/2/28 169/2/28
